#!OML:ASF I:\golf\golf\golf 2\Subject 1\2002-09-07\Subject1.ASF
:FULLY-SPECIFIED
:DEGREES
50
root 0.576586 18.1111 -9.33746 9.68262 -2.69873 -5.13134
lowerback -8.21592 0.713352 -1.84172
upperback -0.485118 0.969082 3.57656
thorax 4.01479 0.418034 4.88185
lowerneck -14.2466 0.801807 1.2062
upperneck 41.544 3.64236 -6.41721
head 18.066 0.780662 -2.53975
rclavicle -7.00716e-015 8.94531e-015
rhumerus -40.8941 33.6166 -100.259
rradius 99.1939
rwrist 4.61865
rhand -18.2032 18.658
rfingers 7.12502
rthumb 8.07425 -11.1678
lclavicle -7.00716e-015 8.94531e-015
lhumerus -38.5587 -31.3237 104.866
lradius 92.7017
lwrist 15.4777
lhand -12.7067 43.4559
lfingers 7.12502
lthumb 13.3759 73.0065
rfemur -13.7382 5.65499 19.5584
rtibia 22.1167
rfoot -12.5388 -5.70149
rtoes -4.01288
lfemur -13.7987 3.21552 -14.2669
ltibia 26.3828
lfoot -16.3663 6.17259
ltoes -4.05033
51
root 0.596056 18.108 -9.33819 9.72556 -2.82407 -5.17441
lowerback -8.36518 0.769701 -1.84348
upperback -0.38661 1.04225 3.58551
thorax 4.19395 0.449106 4.90695
lowerneck -14.2375 0.777529 1.18247
upperneck 41.4682 3.59803 -6.39636
head 18.0135 0.762677 -2.52966
rclavicle 5.14355e-015 -5.94366e-014
rhumerus -40.663 33.5583 -100.089
rradius 99.1576
rwrist 4.52131
rhand -18.3467 18.6311
rfingers 7.12502
rthumb 7.9357 -11.1999
lclavicle 5.14355e-015 -5.94366e-014
lhumerus -38.3493 -31.2574 104.756
lradius 92.6459
lwrist 14.8133
lhand -12.6618 44.2085
lfingers 7.12502
lthumb 13.4192 73.7563
rfemur -13.7582 5.75468 19.5125
rtibia 21.9993
rfoot -12.4705 -5.72934
rtoes -4.74392
lfemur -13.8035 3.08595 -14.3024
ltibia 26.4254
lfoot -16.4373 6.36313
ltoes -3.85587
52
root 0.618615 18.1093 -9.33539 9.73202 -2.939 -5.1299
lowerback -8.43779 0.800129 -1.88458
upperback -0.267674 1.08492 3.57793
thorax 4.35416 0.464371 4.9322
lowerneck -14.3057 0.792022 1.17144
upperneck 41.4093 3.6284 -6.41328
head 17.9997 0.770289 -2.52738
rclavicle 9.91439e-015 7.95139e-015
rhumerus -40.4907 33.5797 -99.9211
rradius 99.1268
rwrist 4.46514
rhand -18.4877 18.7899
rfingers 7.12502
rthumb 7.79965 -11.0463
lclavicle 9.91439e-015 7.95139e-015
lhumerus -38.1436 -31.1932 104.669
lradius 92.6654
lwrist 14.5391
lhand -14.1006 45.3833
lfingers 7.12502
lthumb 12.0321 75.0175
rfemur -13.7016 5.72665 19.3663
rtibia 21.8487
rfoot -12.3996 -5.60514
rtoes -4.83259
lfemur -13.8541 3.01689 -14.4549
ltibia 26.4996
lfoot -16.4536 6.52867
ltoes -3.91272
53
root 0.641736 18.1146 -9.33003 9.70915 -3.07484 -5.07973
lowerback -8.29497 0.783985 -1.91897
upperback -0.263098 1.066 3.58571
thorax 4.27986 0.455679 4.9538
lowerneck -14.3758 0.871507 1.16183
upperneck 41.515 3.79247 -6.48014
head 18.0974 0.823279 -2.53289
rclavicle 3.15571e-015 1.19271e-014
rhumerus -40.5739 33.7293 -99.9298
rradius 99.1155
rwrist 4.55754
rhand -18.4764 19.0121
rfingers 7.12502
rthumb 7.81058 -10.8236
lclavicle 3.15571e-015 1.19271e-014
lhumerus -38.2227 -31.1474 104.783
lradius 92.5461
lwrist 15.1156
lhand -16.5942 46.2226
lfingers 7.12502
lthumb 9.6269 75.9827
rfemur -13.6145 5.78187 19.2084
rtibia 21.7473
rfoot -12.3479 -5.5087
rtoes -4.57758
lfemur -13.9459 3.10206 -14.6207
ltibia 26.589
lfoot -16.3893 6.6532
ltoes -4.35469
54
root 0.666626 18.1159 -9.3388 9.71538 -3.10809 -5.00484
lowerback -7.99996 0.731024 -1.98344
upperback -0.342292 1.00189 3.59395
thorax 4.03675 0.428889 4.98201
lowerneck -14.3622 0.939617 1.15384
upperneck 41.5731 3.9432 -6.5696
head 18.1442 0.869471 -2.54897
rclavicle -2.35808e-014 8.34896e-015
rhumerus -40.6791 33.9015 -99.9709
rradius 99.0956
rwrist 4.61792
rhand -18.3967 19.0385
rfingers 7.12502
rthumb 7.88744 -10.7943
lclavicle -2.35808e-014 8.34896e-015
lhumerus -38.2607 -30.9656 104.808
lradius 92.4645
lwrist 15.0113
lhand -13.4211 44.0187
lfingers 7.12502
lthumb 12.6873 73.6134
rfemur -13.6799 5.84758 19.0222
rtibia 21.7831
rfoot -12.3271 -5.53188
rtoes -4.42469
lfemur -14.1221 3.14169 -14.8032
ltibia 26.727
lfoot -16.2825 6.69053
ltoes -4.6254
55
root 0.690619 18.1125 -9.36742 9.64671 -2.84293 -4.8189
lowerback -7.42194 0.61647 -2.1764
upperback -0.453261 0.866651 3.5797
thorax 3.60789 0.369359 5.04565
lowerneck -14.2356 0.953058 1.13181
upperneck 41.5238 3.98905 -6.62423
head 18.0856 0.879144 -2.55904
rclavicle 6.26172e-015 1.74931e-014
rhumerus -40.7097 33.9817 -99.9863
rradius 99.0524
rwrist 4.61709
rhand -18.3059 18.8304
rfingers 7.12502
rthumb 7.97509 -10.9992
lclavicle 6.26172e-015 1.74931e-014
lhumerus -38.423 -30.9496 104.978
lradius 92.519
lwrist 15.4645
lhand -12.7321 42.8048
lfingers 7.12502
lthumb 13.3514 72.3571
rfemur -13.7288 5.67296 18.7685
rtibia 21.8498
rfoot -12.2861 -5.65699
rtoes -4.55035
lfemur -14.3013 3.13712 -15.0683
ltibia 26.8396
lfoot -16.1287 6.47987
ltoes -5.36917
